<svg width="22" height="22" viewBox="0 0 22 22" fill="none" xmlns="http://www.w3.org/2000/svg">
<g clip-path="url(#clip0_18_15)">
<path d="M19.9499 11.6875H2.05081C1.77787 11.6875 1.53106 11.5197 1.42656 11.2633C1.32206 11.0062 1.37981 10.7106 1.573 10.5139L9.67794 2.26394C9.94194 1.99513 10.3689 1.99513 10.6329 2.26394C10.8969 2.53275 10.8969 2.96725 10.6329 3.23606L3.68088 10.3125H19.9499C20.3232 10.3125 20.625 10.6205 20.625 11C20.625 11.3795 20.3232 11.6875 19.9499 11.6875Z" fill="#D4EE1F"/>
<path d="M10.1557 19.9375C9.98318 19.9375 9.80993 19.8701 9.67793 19.7361L4.27418 14.2361C4.01018 13.9673 4.01018 13.5328 4.27418 13.2639C4.53818 12.9951 4.96512 12.9951 5.22912 13.2639L10.6329 18.7639C10.8969 19.0328 10.8969 19.4673 10.6329 19.7361C10.5016 19.8701 10.3283 19.9375 10.1557 19.9375Z" fill="#D4EE1F"/>
</g>
<defs>
<clipPath id="clip0_18_15">
<rect width="22" height="22" fill="white" transform="matrix(-1 0 0 1 22 0)"/>
</clipPath>
</defs>
</svg>
