<svg width="22" height="22" viewBox="0 0 22 22" fill="none" xmlns="http://www.w3.org/2000/svg">
<g clip-path="url(#clip0_18_15)">
<path d="M2.05013 11.6875H19.9492C20.2221 11.6875 20.4689 11.5197 20.5734 11.2633C20.6779 11.0062 20.6202 10.7106 20.427 10.5139L12.3221 2.26394C12.0581 1.99513 11.6311 1.99513 11.3671 2.26394C11.1031 2.53275 11.1031 2.96725 11.3671 3.23606L18.3191 10.3125H2.05013C1.67681 10.3125 1.375 10.6205 1.375 11C1.375 11.3795 1.67681 11.6875 2.05013 11.6875Z" fill="#D4EE1F"/>
<path d="M11.8443 19.9375C12.0168 19.9375 12.1901 19.8701 12.3221 19.7361L17.7258 14.2361C17.9898 13.9673 17.9898 13.5328 17.7258 13.2639C17.4618 12.9951 17.0349 12.9951 16.7709 13.2639L11.3671 18.7639C11.1031 19.0328 11.1031 19.4673 11.3671 19.7361C11.4984 19.8701 11.6717 19.9375 11.8443 19.9375Z" fill="#D4EE1F"/>
</g>
<defs>
<clipPath id="clip0_18_15">
<rect width="22" height="22" fill="white"/>
</clipPath>
</defs>
</svg>
